<svg width="81" height="81" viewBox="0 0 81 81" fill="none" xmlns="http://www.w3.org/2000/svg">
<rect width="81" height="81" rx="40.5" fill="#D72130"/>
<path d="M29.5742 30.302C29.5742 29.7497 30.0219 29.302 30.5742 29.302H50.6305C51.1828 29.302 51.6305 29.7497 51.6305 30.302V53.6601C51.6305 55.8692 49.8396 57.6601 47.6305 57.6601H33.5742C31.3651 57.6601 29.5742 55.8692 29.5742 53.6601V30.302Z" fill="white"/>
<rect x="28" y="26.1506" width="25.2072" height="3.1509" rx="1" fill="white"/>
<rect x="35.0898" y="23" width="11.0281" height="3.1509" rx="1" fill="white"/>
<rect x="36.6641" y="24.5757" width="7.87724" height="1.57545" fill="#D72130"/>
<rect x="32.7266" y="31.665" width="1.57545" height="22.0563" rx="0.787724" fill="#D72130"/>
<rect x="39.8164" y="31.665" width="1.57545" height="22.0563" rx="0.787724" fill="#D72130"/>
<rect x="46.9062" y="31.665" width="1.57545" height="22.0563" rx="0.787724" fill="#D72130"/>
</svg>
