<svg width="20" height="19" viewBox="0 0 20 19" fill="none" xmlns="http://www.w3.org/2000/svg">
<path d="M19.5614 8.08078H16.3901V5.2629C16.3901 5.0479 16.1938 4.87305 15.9523 4.87305H15.0493C14.8062 4.87305 14.6099 5.0479 14.6099 5.2629V8.08078H11.4386C11.1971 8.08078 11 8.256 11 8.47138V9.27397C11 9.48934 11.1971 9.66382 11.4386 9.66382H14.6099V12.4832C14.6099 12.6986 14.8062 12.873 15.0493 12.873H15.9523C16.1938 12.873 16.3901 12.6986 16.3901 12.4832V9.66344H19.5614C19.8029 9.66344 20 9.48897 20 9.27359V8.471C20 8.25563 19.8029 8.08078 19.5614 8.08078Z" fill="black"/>
<path fill-rule="evenodd" clip-rule="evenodd" d="M8.73118 10.8307C8.14507 10.3806 7.61238 9.72061 7.6031 9.51789C7.6031 9.14865 7.63352 8.97208 8.39732 8.32693C9.3848 7.48871 9.92862 6.38663 9.92862 5.22222C9.92862 4.1664 9.63112 3.22843 9.12476 2.5696H9.51761C9.59885 2.5696 9.6786 2.54225 9.74352 2.49076L10.8397 1.62962C10.9758 1.52383 11.033 1.33519 10.981 1.16264C10.9287 0.990494 10.7818 0.873047 10.6145 0.873047H5.71197C5.17557 0.873047 4.63064 0.975612 4.09572 1.17511C2.3092 1.84319 1.05982 3.49389 1.05982 5.18843C1.05982 7.58926 2.77512 9.40889 5.06799 9.466C5.02311 9.65625 5.00048 9.84369 5.00048 10.0275C5.00048 10.3975 5.08691 10.7479 5.26497 11.0865H5.20191C3.01624 11.0865 1.0435 12.2493 0.294539 13.9797C0.0994161 14.4298 0 14.8847 0 15.3339C0 15.7708 0.103497 16.1911 0.306409 16.586C0.777152 17.4991 1.78801 18.2074 3.15423 18.5814C3.85942 18.7745 4.61728 18.873 5.40408 18.873C6.11112 18.873 6.78515 18.7741 7.40835 18.5786C9.35142 17.9669 10.6078 16.4159 10.6078 14.6256C10.6075 12.9078 10.0982 11.8793 8.73118 10.8307ZM2.53956 14.7632C2.53956 13.5135 4.00372 12.4175 5.67265 12.4175H5.71754C6.0807 12.4223 6.43497 12.4802 6.76883 12.5912C6.87568 12.6711 6.97899 12.7475 7.07845 12.821L7.07846 12.821L7.10009 12.837L7.10244 12.8387C7.8742 13.4089 8.38411 13.7856 8.52604 14.3899C8.55943 14.5424 8.57612 14.6948 8.57612 14.8424C8.57612 16.3986 7.50591 17.1874 5.39406 17.1874C3.79339 17.1874 2.53956 16.1231 2.53956 14.7632ZM5.04425 2.4618C4.66069 2.4618 4.31904 2.63234 4.05825 2.95532C3.65465 3.45447 3.48401 4.24483 3.59048 5.12407C3.78004 6.69674 4.83911 8.05583 5.90042 8.09123H5.91785H5.9186C6.31774 8.09123 6.65457 7.92069 6.91609 7.5969C7.32489 7.09172 7.50591 6.26275 7.39871 5.38109C7.20804 3.80641 6.17122 2.4972 5.08766 2.46261L5.04425 2.4618Z" fill="black"/>
</svg>
