<svg width="21" height="19" viewBox="0 0 21 19" fill="none" xmlns="http://www.w3.org/2000/svg">
<path d="M21 3.00379C20.228 3.36573 19.3972 3.60987 18.5254 3.71913C19.4155 3.15711 20.098 2.26686 20.4198 1.20486C19.5873 1.72597 18.6657 2.1041 17.6839 2.30823C16.8983 1.42518 15.7785 0.873047 14.5392 0.873047C12.1602 0.873047 10.2312 2.90757 10.2312 5.41733C10.2312 5.77298 10.2692 6.11964 10.3429 6.4528C6.76213 6.26307 3.58717 4.45425 1.46215 1.70484C1.09129 2.37567 0.878996 3.15621 0.878996 3.9898C0.878996 5.56616 1.63949 6.95728 2.79557 7.77198C2.08964 7.74815 1.42507 7.54358 0.844041 7.20322C0.843615 7.2221 0.843615 7.24143 0.843615 7.26077C0.843615 9.4621 2.32879 11.2983 4.29992 11.7165C3.93843 11.8199 3.55776 11.8756 3.16473 11.8756C2.88679 11.8756 2.61695 11.8473 2.35394 11.7938C2.90256 13.599 4.49345 14.9133 6.37848 14.9497C4.90396 16.1686 3.04665 16.8952 1.02777 16.8952C0.680348 16.8952 0.33719 16.8736 0 16.8313C1.90719 18.1213 4.17161 18.873 6.60441 18.873C14.5294 18.873 18.8626 11.9489 18.8626 5.94384C18.8626 5.7469 18.8588 5.55042 18.8507 5.35529C19.6922 4.71593 20.4228 3.91516 21 3.00379Z" fill="black"/>
</svg>
