<svg width="26" height="27" viewBox="0 0 26 27" fill="none" xmlns="http://www.w3.org/2000/svg">
<path fill-rule="evenodd" clip-rule="evenodd" d="M20.1347 3.68213L20.9823 5.25614L5.02857 13.8466L19.6349 21.5555L18.8005 23.1365L1.22852 13.8624L20.1347 3.68213Z" fill="#B2B2B2"/>
<path fill-rule="evenodd" clip-rule="evenodd" d="M22.3464 5.36307C23.3337 5.36307 24.1341 4.56269 24.1341 3.57538C24.1341 2.58806 23.3337 1.78769 22.3464 1.78769C21.3591 1.78769 20.5587 2.58806 20.5587 3.57538C20.5587 4.56269 21.3591 5.36307 22.3464 5.36307ZM22.3464 7.15075C24.321 7.15075 25.9218 5.55 25.9218 3.57538C25.9218 1.60075 24.321 0 22.3464 0C20.3717 0 18.771 1.60075 18.771 3.57538C18.771 5.55 20.3717 7.15075 22.3464 7.15075Z" fill="#B2B2B2"/>
<path fill-rule="evenodd" clip-rule="evenodd" d="M21.4523 25.0276C22.4396 25.0276 23.24 24.2272 23.24 23.2399C23.24 22.2526 22.4396 21.4522 21.4523 21.4522C20.465 21.4522 19.6646 22.2526 19.6646 23.2399C19.6646 24.2272 20.465 25.0276 21.4523 25.0276ZM21.4523 26.8153C23.427 26.8153 25.0277 25.2146 25.0277 23.2399C25.0277 21.2653 23.427 19.6646 21.4523 19.6646C19.4777 19.6646 17.877 21.2653 17.877 23.2399C17.877 25.2146 19.4777 26.8153 21.4523 26.8153Z" fill="#B2B2B2"/>
<path fill-rule="evenodd" clip-rule="evenodd" d="M3.57538 15.1953C4.56269 15.1953 5.36307 14.395 5.36307 13.4077C5.36307 12.4203 4.56269 11.62 3.57538 11.62C2.58806 11.62 1.78769 12.4203 1.78769 13.4077C1.78769 14.395 2.58806 15.1953 3.57538 15.1953ZM3.57538 16.983C5.55 16.983 7.15075 15.3823 7.15075 13.4077C7.15075 11.433 5.55 9.83228 3.57538 9.83228C1.60075 9.83228 0 11.433 0 13.4077C0 15.3823 1.60075 16.983 3.57538 16.983Z" fill="#B2B2B2"/>
<circle cx="3.57529" cy="13.4076" r="1.78769" fill="white"/>
</svg>
