<svg width="38" height="17" viewBox="0 0 38 17" fill="none" xmlns="http://www.w3.org/2000/svg">
<path d="M32.501 12L27.7378 6L37.2641 6L32.501 12Z" fill="black"/>
<path d="M7.42578 13H2.58008V4.43359H7.42578V5.61719H3.98047V7.94922H7.20898V9.12109H3.98047V11.8105H7.42578V13ZM16.4199 13H14.7031L10.4902 6.17383H10.4434L10.4727 6.55469C10.5273 7.28125 10.5547 7.94531 10.5547 8.54688V13H9.2832V4.43359H10.9824L15.1836 11.2246H15.2188C15.2109 11.1348 15.1953 10.8086 15.1719 10.2461C15.1484 9.67969 15.1367 9.23828 15.1367 8.92188V4.43359H16.4199V13Z" fill="black"/>
</svg>
